<svg xmlns="http://www.w3.org/2000/svg" id="Logo" width="92.862" height="67.589" viewBox="0 0 92.862 67.589"><path id="Path_26" data-name="Path 26" d="M.5-12.744q.522.018,1.377.036T3.6-12.69q.9,0,1.728-.018t1.17-.018a8.47,8.47,0,0,1,4.077.765,2.54,2.54,0,0,1,1.341,2.367,3.259,3.259,0,0,1-.27,1.3,2.959,2.959,0,0,1-.918,1.143,4.826,4.826,0,0,1-1.773.81,11.429,11.429,0,0,1-2.853.3H4.374v-.36H5.922a2.1,2.1,0,0,0,1.395-.405,2.025,2.025,0,0,0,.648-1.08,6.124,6.124,0,0,0,.171-1.5,5.08,5.08,0,0,0-.387-2.2,1.373,1.373,0,0,0-1.341-.783q-.612,0-.792.306a2.8,2.8,0,0,0-.18,1.242v8.928a3.559,3.559,0,0,0,.1.972A.63.63,0,0,0,5.9-.5a2.812,2.812,0,0,0,.81.144V0Q6.192-.036,5.373-.045T3.708-.054q-.972,0-1.827.009T.5,0V-.36A2.875,2.875,0,0,0,1.332-.5a.605.605,0,0,0,.36-.432,3.9,3.9,0,0,0,.09-.972v-8.928a3.884,3.884,0,0,0-.09-.981.626.626,0,0,0-.369-.432A2.425,2.425,0,0,0,.5-12.384Zm3.762,6.39q.648.018,1.224.072l1.062.1q.486.045.828.063a6.335,6.335,0,0,1,2.889.666,2.423,2.423,0,0,1,1.179,1.692l.378,1.872a2.678,2.678,0,0,0,.324.918.567.567,0,0,0,.486.252.776.776,0,0,0,.306-.054.822.822,0,0,0,.252-.18l.234.234a2.987,2.987,0,0,1-1.215.765,4.934,4.934,0,0,1-1.485.207,3.705,3.705,0,0,1-1.89-.423,1.972,1.972,0,0,1-.882-1.521l-.27-1.8a10.5,10.5,0,0,0-.27-1.314,2.516,2.516,0,0,0-.432-.909.9.9,0,0,0-.738-.333H4.3Zm13.9-3.24a3.332,3.332,0,0,1,2.493.927,4.344,4.344,0,0,1,.909,3.105H15.93L15.894-5.9h3.042a11.672,11.672,0,0,0-.072-1.629,4.316,4.316,0,0,0-.288-1.2q-.2-.45-.54-.45-.486,0-.792.765a9.009,9.009,0,0,0-.4,2.619l.072.144q-.018.18-.018.36v.378a4.915,4.915,0,0,0,.315,1.962,2.006,2.006,0,0,0,.792.972,1.937,1.937,0,0,0,.963.27,3.512,3.512,0,0,0,.972-.189A2.513,2.513,0,0,0,21.15-2.916l.306.108a5.317,5.317,0,0,1-.693,1.431A3.9,3.9,0,0,1,19.53-.207a3.474,3.474,0,0,1-1.836.459,4.66,4.66,0,0,1-2.1-.468,3.39,3.39,0,0,1-1.5-1.548,6.353,6.353,0,0,1-.558-2.9,5.714,5.714,0,0,1,.612-2.817,3.792,3.792,0,0,1,1.665-1.6A5.292,5.292,0,0,1,18.162-9.594Zm8.028,0a5.131,5.131,0,0,1,1.4.171,4.778,4.778,0,0,1,.873.315q.63.378.774-.468h.36q-.036.522-.054,1.269T29.52-6.336h-.36a5.376,5.376,0,0,0-.315-1.314,2.812,2.812,0,0,0-.7-1.08,1.676,1.676,0,0,0-1.2-.432,1.1,1.1,0,0,0-.756.27.934.934,0,0,0-.306.738,1.542,1.542,0,0,0,.324.963,4.435,4.435,0,0,0,.828.81q.5.387,1.008.819A9.874,9.874,0,0,1,29.43-4.23a2.572,2.572,0,0,1,.558,1.71,2.267,2.267,0,0,1-.495,1.44A3.271,3.271,0,0,1,28.179-.1a4.593,4.593,0,0,1-1.827.351,3.982,3.982,0,0,1-1.1-.135A3.017,3.017,0,0,1,24.5-.2Q24.21-.342,24-.423A1.107,1.107,0,0,0,23.6-.5a.364.364,0,0,0-.306.189,1.564,1.564,0,0,0-.2.441h-.36q.036-.576.054-1.4t.018-2.2h.36a6.026,6.026,0,0,0,.423,1.692A3.088,3.088,0,0,0,24.4-.621,1.707,1.707,0,0,0,25.542-.2a1.16,1.16,0,0,0,.729-.243.884.884,0,0,0,.315-.747,1.94,1.94,0,0,0-.477-1.332,14.975,14.975,0,0,0-1.2-1.188q-.54-.5-1.017-.981a4.486,4.486,0,0,1-.783-1.044A2.629,2.629,0,0,1,22.806-7a2.1,2.1,0,0,1,.477-1.386,3.11,3.11,0,0,1,1.251-.891A4.351,4.351,0,0,1,26.19-9.594Zm8.874-2.664v2.916h1.764v.36H35.064v7.47a.778.778,0,0,0,.126.5.507.507,0,0,0,.414.153,1.211,1.211,0,0,0,.468-.117,1.356,1.356,0,0,0,.5-.405l.27.216a2.95,2.95,0,0,1-1,1.035A2.9,2.9,0,0,1,34.29.252,3.5,3.5,0,0,1,33.219.1a1.91,1.91,0,0,1-.783-.459,1.818,1.818,0,0,1-.5-.981,8.674,8.674,0,0,1-.108-1.521v-6.12H30.456v-.36h1.368v-2.124a7.408,7.408,0,0,0,1.737-.189A5.674,5.674,0,0,0,35.064-12.258ZM39.546.126a2.186,2.186,0,0,1-1.773-.657,2.3,2.3,0,0,1-.549-1.521,2.142,2.142,0,0,1,.342-1.26,2.645,2.645,0,0,1,.891-.792,6.958,6.958,0,0,1,1.161-.513q.612-.207,1.161-.405a3.33,3.33,0,0,0,.891-.459.812.812,0,0,0,.342-.675v-1.6a2.279,2.279,0,0,0-.1-.63,1.292,1.292,0,0,0-.369-.594,1.149,1.149,0,0,0-.81-.252,1.842,1.842,0,0,0-.549.081,1.559,1.559,0,0,0-.459.225,1.841,1.841,0,0,1,.918.657,1.613,1.613,0,0,1,.288.927,1.389,1.389,0,0,1-.5,1.134A1.814,1.814,0,0,1,39.24-5.8a1.408,1.408,0,0,1-1.116-.45,1.628,1.628,0,0,1-.4-1.116,1.573,1.573,0,0,1,.279-.945,2.65,2.65,0,0,1,.837-.711,4.065,4.065,0,0,1,1.3-.441,9,9,0,0,1,1.584-.135,7.419,7.419,0,0,1,1.638.171,2.55,2.55,0,0,1,1.3.729,1.885,1.885,0,0,1,.486.99,8.835,8.835,0,0,1,.108,1.53V-1.35a1.96,1.96,0,0,0,.063.612.227.227,0,0,0,.225.162.5.5,0,0,0,.279-.09q.135-.09.261-.18l.18.306a2.5,2.5,0,0,1-.981.5,4.6,4.6,0,0,1-1.233.162,2.152,2.152,0,0,1-1.557-.414,1.51,1.51,0,0,1-.423-.954,2.977,2.977,0,0,1-.972.981A2.848,2.848,0,0,1,39.546.126Zm1.8-1.44a.916.916,0,0,0,.351-.063.91.91,0,0,0,.315-.243v-3.8a2.183,2.183,0,0,1-.45.567q-.27.243-.531.522a2.3,2.3,0,0,0-.432.684,2.682,2.682,0,0,0-.171,1.035A1.506,1.506,0,0,0,40.689-1.6.849.849,0,0,0,41.346-1.314ZM56.25-9.54v7.578a2.459,2.459,0,0,0,.225,1.2.83.83,0,0,0,.783.387V0Q56.7-.054,56.142-.054q-.9,0-1.674.054A10.692,10.692,0,0,0,53.01.2V-1.1A2.481,2.481,0,0,1,51.849-.063a4.26,4.26,0,0,1-1.7.315A3.351,3.351,0,0,1,48.843.045a1.9,1.9,0,0,1-.729-.513,2.062,2.062,0,0,1-.4-.864,6.689,6.689,0,0,1-.126-1.458V-7.38a2.547,2.547,0,0,0-.216-1.2.826.826,0,0,0-.792-.387v-.378q.576.054,1.116.054.9,0,1.683-.063a13.748,13.748,0,0,0,1.449-.189v7.722a1.893,1.893,0,0,0,.09.63.715.715,0,0,0,.288.378.923.923,0,0,0,.5.126,1.284,1.284,0,0,0,.9-.369,1.214,1.214,0,0,0,.4-.927v-5.4a2.547,2.547,0,0,0-.216-1.2A.826.826,0,0,0,52-8.964v-.378q.576.054,1.116.054.9,0,1.683-.063A13.748,13.748,0,0,0,56.25-9.54Zm8.28-.054a1.611,1.611,0,0,1,1.008.279,1.472,1.472,0,0,1,.5.7,2.586,2.586,0,0,1,.144.837,1.778,1.778,0,0,1-.459,1.287,1.586,1.586,0,0,1-1.2.477,1.751,1.751,0,0,1-1.2-.36,1.194,1.194,0,0,1-.4-.936,1.8,1.8,0,0,1,.261-1.008,2.394,2.394,0,0,1,.657-.666,1.271,1.271,0,0,0-.576.126,1.731,1.731,0,0,0-.531.369,1.9,1.9,0,0,0-.387.558,1.6,1.6,0,0,0-.144.675v5.4a1.5,1.5,0,0,0,.36,1.17,1.833,1.833,0,0,0,1.188.306V0q-.414-.018-1.233-.045T60.84-.072q-.81,0-1.638.027T57.96,0V-.378a.972.972,0,0,0,.783-.27,1.677,1.677,0,0,0,.225-1.026V-7.38a2.547,2.547,0,0,0-.216-1.2.826.826,0,0,0-.792-.387v-.378q.576.054,1.116.054.9,0,1.683-.063a13.748,13.748,0,0,0,1.449-.189v1.3a2.445,2.445,0,0,1,.576-.765,2.243,2.243,0,0,1,.783-.441A3.087,3.087,0,0,1,64.53-9.594ZM68.958.126a2.186,2.186,0,0,1-1.773-.657,2.3,2.3,0,0,1-.549-1.521,2.142,2.142,0,0,1,.342-1.26,2.645,2.645,0,0,1,.891-.792,6.958,6.958,0,0,1,1.161-.513q.612-.207,1.161-.405a3.33,3.33,0,0,0,.891-.459.812.812,0,0,0,.342-.675v-1.6a2.279,2.279,0,0,0-.1-.63,1.292,1.292,0,0,0-.369-.594,1.149,1.149,0,0,0-.81-.252,1.842,1.842,0,0,0-.549.081,1.559,1.559,0,0,0-.459.225,1.841,1.841,0,0,1,.918.657,1.613,1.613,0,0,1,.288.927,1.389,1.389,0,0,1-.5,1.134,1.814,1.814,0,0,1-1.188.414,1.408,1.408,0,0,1-1.116-.45,1.628,1.628,0,0,1-.4-1.116,1.573,1.573,0,0,1,.279-.945,2.65,2.65,0,0,1,.837-.711,4.065,4.065,0,0,1,1.3-.441,9,9,0,0,1,1.584-.135,7.419,7.419,0,0,1,1.638.171,2.55,2.55,0,0,1,1.3.729,1.885,1.885,0,0,1,.486.99,8.835,8.835,0,0,1,.108,1.53V-1.35a1.96,1.96,0,0,0,.063.612.227.227,0,0,0,.225.162.5.5,0,0,0,.279-.09q.135-.09.261-.18l.18.306a2.5,2.5,0,0,1-.981.5,4.6,4.6,0,0,1-1.233.162A2.152,2.152,0,0,1,71.9-.288a1.51,1.51,0,0,1-.423-.954,2.977,2.977,0,0,1-.972.981A2.848,2.848,0,0,1,68.958.126Zm1.8-1.44a.916.916,0,0,0,.351-.063.91.91,0,0,0,.315-.243v-3.8a2.183,2.183,0,0,1-.45.567q-.27.243-.531.522a2.3,2.3,0,0,0-.432.684A2.682,2.682,0,0,0,69.84-2.61,1.506,1.506,0,0,0,70.1-1.6.849.849,0,0,0,70.758-1.314Zm12.528-8.28a3.351,3.351,0,0,1,1.305.207,1.9,1.9,0,0,1,.729.513,2.062,2.062,0,0,1,.4.864,6.689,6.689,0,0,1,.126,1.458v4.878a1.677,1.677,0,0,0,.225,1.026.972.972,0,0,0,.783.27V0q-.36-.018-1.089-.045T84.33-.072q-.756,0-1.476.027T81.774,0V-.378a.721.721,0,0,0,.648-.27,2.016,2.016,0,0,0,.18-1.026v-5.85a1.893,1.893,0,0,0-.09-.63.732.732,0,0,0-.279-.378.914.914,0,0,0-.513-.126,1.3,1.3,0,0,0-.9.36,1.206,1.206,0,0,0-.4.936v5.688a1.934,1.934,0,0,0,.189,1.026.725.725,0,0,0,.639.27V0q-.342-.018-1.008-.045T78.876-.072q-.756,0-1.53.027T76.176,0V-.378a.972.972,0,0,0,.783-.27,1.677,1.677,0,0,0,.225-1.026V-7.38a2.547,2.547,0,0,0-.216-1.2.826.826,0,0,0-.792-.387v-.378q.576.054,1.116.054.9,0,1.683-.063a13.748,13.748,0,0,0,1.449-.189v1.3a2.481,2.481,0,0,1,1.161-1.035A4.26,4.26,0,0,1,83.286-9.594Zm8.3-2.664v2.916h1.764v.36H91.584v7.47a.778.778,0,0,0,.126.5.507.507,0,0,0,.414.153,1.211,1.211,0,0,0,.468-.117,1.356,1.356,0,0,0,.5-.405l.27.216a2.95,2.95,0,0,1-1,1.035A2.9,2.9,0,0,1,90.81.252,3.5,3.5,0,0,1,89.739.1a1.91,1.91,0,0,1-.783-.459,1.818,1.818,0,0,1-.5-.981,8.675,8.675,0,0,1-.108-1.521v-6.12H86.976v-.36h1.368v-2.124a7.408,7.408,0,0,0,1.737-.189A5.674,5.674,0,0,0,91.584-12.258Z" transform="translate(-0.504 67.337)" fill="#ffc500"></path><g id="Group_11" data-name="Group 11" transform="translate(-77.423 -285.965)"><g id="Group_6" data-name="Group 6" transform="translate(104.117 285.965)"><path id="Path_23" data-name="Path 23" d="M123.672,330.592l-12.359,12.359a2.867,2.867,0,0,0,4.055,4.054l12.359-12.358Z" transform="translate(-110.473 -302.976)" fill="#ffc500"></path><path id="Path_24" data-name="Path 24" d="M164.335,297.389a1.848,1.848,0,0,0-2.451.195l-7.37,7.37-1.283-1.283,7.37-7.37a1.848,1.848,0,0,0,.2-2.451,1.778,1.778,0,0,0-2.638-.136l-7.442,7.441-1.283-1.283,7.37-7.37a1.847,1.847,0,0,0,.2-2.45,1.779,1.779,0,0,0-2.638-.136l-7.441,7.441-2.421,2.421a3.812,3.812,0,0,0,0,5.39l.333.333-5.086,5.086,4.055,4.055,5.086-5.087.333.333a3.812,3.812,0,0,0,5.39,0l9.863-9.863A1.779,1.779,0,0,0,164.335,297.389Z" transform="translate(-120.123 -289.395)" fill="#ffc500"></path></g><path id="Path_25" data-name="Path 25" d="M102.3,293.147c-3.276,3.276-2.59,9.273,1.531,13.395,3.224,3.224,7.591,4.334,10.91,3.1l23.208,23.208A2.867,2.867,0,0,0,142,328.8L118.8,305.588c1.233-3.319.123-7.685-3.1-10.91C111.572,290.557,105.575,289.872,102.3,293.147Z" transform="translate(-2.979 -3.984)" fill="#ffc500"></path></g></svg>